<svg width="25" height="22" viewBox="0 0 25 22" fill="none" xmlns="http://www.w3.org/2000/svg">
<path d="M12.5005 7.56796V11.7346M12.5005 15.9013H12.511M10.7193 2.2138L1.89637 16.943C1.71447 17.258 1.61821 17.6152 1.6172 17.9789C1.61618 18.3427 1.71043 18.7004 1.89057 19.0164C2.07071 19.3325 2.33046 19.5958 2.64399 19.7803C2.95751 19.9648 3.31387 20.064 3.67762 20.068H21.3235C21.6872 20.064 22.0436 19.9648 22.3571 19.7803C22.6706 19.5958 22.9304 19.3325 23.1105 19.0164C23.2907 18.7004 23.3849 18.3427 23.3839 17.9789C23.3829 17.6152 23.2866 17.258 23.1047 16.943L14.2818 2.2138C14.0961 1.90766 13.8346 1.65455 13.5226 1.47888C13.2106 1.30322 12.8586 1.21094 12.5005 1.21094C12.1425 1.21094 11.7905 1.30322 11.4785 1.47888C11.1665 1.65455 10.905 1.90766 10.7193 2.2138Z" stroke="#1E1E1E" stroke-width="2" stroke-linecap="round" stroke-linejoin="round"/>
</svg>
