<svg width="35" height="30" viewBox="0 0 35 30" fill="none" xmlns="http://www.w3.org/2000/svg">
<path d="M23.3339 20.8337L17.5006 15.0003M17.5006 15.0003L11.6673 20.8337M17.5006 15.0003V28.1253M29.736 24.3191C31.1584 23.5436 32.282 22.3166 32.9296 20.8317C33.5772 19.3467 33.7118 17.6884 33.3122 16.1184C32.9126 14.5485 32.0015 13.1563 30.7228 12.1616C29.4442 11.1669 27.8706 10.6264 26.2506 10.6253H24.4131C23.9717 8.91797 23.149 7.33289 22.0068 5.98927C20.8646 4.64565 19.4327 3.57844 17.8187 2.86787C16.2047 2.15731 14.4506 1.82189 12.6883 1.88682C10.926 1.95175 9.20134 2.41534 7.644 3.24275C6.08666 4.07016 4.73715 5.23985 3.69694 6.66388C2.65672 8.08791 1.95287 9.72923 1.63829 11.4644C1.32372 13.1996 1.4066 14.9836 1.88072 16.6822C2.35483 18.3807 3.20784 19.9497 4.37561 21.2712" stroke="#9CA3AF" stroke-width="3" stroke-linecap="round" stroke-linejoin="round"/>
</svg>
